#!OML:ASF E:\Style6\Style6.ASF
:FULLY-SPECIFIED
:DEGREES
2655
root 1.60326 17.6884 -0.955799 8.78886 -26.5741 2.01446
lowerback 5.40864 -1.42611 6.18178
upperback 12.0288 -2.6457 6.09238
thorax 9.89394 -1.20059 3.00665
lowerneck 2.42079 5.41945 3.52313
upperneck -2.3461 7.03488 -15.9134
head -0.37737 3.71106 -5.39145
rclavicle -1.90833e-014 -2.06736e-014
rhumerus -3.87301 8.70211 -81.7162
rradius 107.449
rwrist 1.3801
rhand -21.942 10.631
rfingers 7.12502
rthumb 4.46474 -19.3019
lclavicle -1.90833e-014 -2.06736e-014
lhumerus -32.7354 -10.2356 73.9904
lradius 111.613
lwrist 22.5892
lhand -29.767 26.0511
lfingers 7.12502
lthumb -3.09245 56.0084
rfemur -35.131 16.0841 8.58505
rtibia 29.4965
rfoot -1.29425 2.38877
rtoes -17.1559
lfemur -26.8514 3.97129 -25.6365
ltibia 35.3183
lfoot -11.3489 22.4741
ltoes -1.8452
2656
root 1.58901 17.6929 -0.951822 8.70983 -26.4362 1.95477
lowerback 5.35213 -1.38296 6.16361
upperback 11.9741 -2.58381 6.07246
thorax 9.86125 -1.16942 2.99428
lowerneck 2.27703 5.32607 3.55533
upperneck -2.16653 6.93439 -15.7371
head -0.316538 3.64443 -5.33559
rclavicle 9.54166e-015 3.18055e-015
rhumerus -4.09336 8.58869 -81.9806
rradius 107.612
rwrist 0.806515
rhand -22.0777 10.5239
rfingers 7.12502
rthumb 4.33375 -19.4117
lclavicle 9.54166e-015 3.18055e-015
lhumerus -32.0515 -10.2161 74.4867
lradius 112.389
lwrist 23.4403
lhand -29.2637 25.682
lfingers 7.12502
lthumb -2.6064 55.6458
rfemur -34.9044 16.0486 8.74104
rtibia 29.4543
rfoot -1.32574 2.33236
rtoes -16.5709
lfemur -26.6422 3.8289 -25.4951
ltibia 35.1964
lfoot -11.2286 22.506
ltoes -2.03026
2657
root 1.57599 17.6965 -0.947752 8.59217 -26.303 1.94833
lowerback 5.36428 -1.33989 6.14316
upperback 11.8967 -2.50957 6.02731
thorax 9.75985 -1.13144 2.95665
lowerneck 2.17772 5.23086 3.65555
upperneck -1.98889 6.83204 -15.6099
head -0.259548 3.57916 -5.30771
rclavicle 9.54166e-015 7.79236e-014
rhumerus -4.34742 8.46225 -82.2657
rradius 107.812
rwrist 0.179013
rhand -22.2433 10.4401
rfingers 7.12502
rthumb 4.17387 -19.4988
lclavicle 9.54166e-015 7.79236e-014
lhumerus -31.2842 -10.3285 74.9715
lradius 113.048
lwrist 24.2695
lhand -28.753 25.1969
lfingers 7.12502
lthumb -2.11313 55.1662
rfemur -34.6616 15.972 8.86218
rtibia 29.3924
rfoot -1.35027 2.32067
rtoes -17.0144
lfemur -26.4221 3.72296 -25.4203
ltibia 35.0702
lfoot -11.1471 22.5271
ltoes -2.33198
2658
root 1.56345 17.7052 -0.940832 8.51744 -26.1341 1.91505
lowerback 5.30872 -1.3284 6.13715
upperback 11.8058 -2.48636 6.01567
thorax 9.68574 -1.11905 2.94454
lowerneck 2.07842 5.16284 3.62988
upperneck -1.80719 6.76272 -15.4193
head -0.204861 3.53073 -5.23951
rclavicle 6.67916e-014 -4.92986e-014
rhumerus -4.56751 8.46546 -82.5183
rradius 107.968
rwrist -0.592101
rhand -22.3659 10.2932
rfingers 7.12502
rthumb 4.05548 -19.6479
lclavicle 6.67916e-014 -4.92986e-014
lhumerus -30.5009 -10.4656 75.5477
lradius 113.668
lwrist 24.8496
lhand -28.4312 24.7022
lfingers 7.12502
lthumb -1.80239 54.6743
rfemur -34.4403 15.9102 8.97031
rtibia 29.3169
rfoot -1.35534 2.26761
rtoes -15.3277
lfemur -26.1952 3.5956 -25.3267
ltibia 34.9391
lfoot -11.0066 22.5561
ltoes -2.86594
2659
root 1.54888 17.7166 -0.932809 8.52482 -26.0064 1.77346
lowerback 5.18272 -1.2729 6.22132
upperback 11.7188 -2.41348 6.00524
thorax 9.65536 -1.07354 2.88433
lowerneck 1.95718 5.06781 3.67786
upperneck -1.62252 6.6593 -15.2224
head -0.146401 3.46412 -5.18141
rclavicle -1.74931e-014 7.4743e-014
rhumerus -4.72982 8.38966 -82.7976
rradius 108.074
rwrist -1.3883
rhand -22.3184 10.1279
rfingers 7.12502
rthumb 4.10131 -19.8124
lclavicle -1.74931e-014 7.4743e-014
lhumerus -29.601 -10.6849 76.0703
lradius 114.275
lwrist 25.1831
lhand -28.089 24.658
lfingers 7.12502
lthumb -1.47183 54.6326
rfemur -34.2774 15.9214 9.16084
rtibia 29.2739
rfoot -1.34319 2.19118
rtoes -12.454
lfemur -26.0046 3.48898 -25.1259
ltibia 34.8205
lfoot -10.877 22.5704
ltoes -3.39923
2660
root 1.53221 17.7196 -0.926502 8.47718 -25.8392 1.70706
lowerback 5.07062 -1.22713 6.2042
upperback 11.637 -2.35053 5.98335
thorax 9.6244 -1.04122 2.86794
lowerneck 1.82025 4.96156 3.80575
upperneck -1.39411 6.54696 -15.0669
head -0.0691437 3.391 -5.14822
rclavicle -9.54166e-015 -6.83819e-014
rhumerus -4.93473 8.32402 -83.068
rradius 108.278
rwrist -2.1686
rhand -22.2739 9.85463
rfingers 7.12502
rthumb 4.14431 -20.0848
lclavicle -9.54166e-015 -6.83819e-014
lhumerus -28.6422 -10.9419 76.6119
lradius 114.865
lwrist 25.4376
lhand -27.9056 24.7884
lfingers 7.12502
lthumb -1.29472 54.7643
rfemur -34.0475 15.824 9.36024
rtibia 29.2663
rfoot -1.4191 2.14906
rtoes -14.9934
lfemur -25.8224 3.26699 -24.9679
ltibia 34.7127
lfoot -10.8403 22.6104
ltoes -3.3448
